# xmcd
#
# Track frame offsets: 
#        150
#        21614
#        38497
#        57621
#        78006
#        108505
#        126626
#        147827
#        161688
#        179860
#        197529
#
# Disc length: 3061 seconds
#
# Revision: 0
# Processed by: cddbd v1.5.2PL0 Copyright (c) Steve Scherf et al.
# Submitted via: ExactAudioCopy v1.3
#
DISCID=a00bf30b
DTITLE=Tinsley Ellis - Ice Cream In Hell
DYEAR=2020
DGENRE=Blues
TTITLE0=Last One to Know
TTITLE1=Don't Know Beans
TTITLE2=Ice Cream In Hell
TTITLE3=Foolin' Yourself
TTITLE4=Hole In My Heart
TTITLE5=Sit Tight Mama
TTITLE6=No Stroll In The Park
TTITLE7=Evil Till Sunrise
TTITLE8=Everything And Everyone
TTITLE9=Unlock My Heart
TTITLE10=Your Love's Like Heroin
EXTD=
EXTT0=
EXTT1=
EXTT2=
EXTT3=
EXTT4=
EXTT5=
EXTT6=
EXTT7=
EXTT8=
EXTT9=
EXTT10=
PLAYORDER=
